{
	"patcher" : 	{
		"fileversion" : 1,
		"appversion" : 		{
			"major" : 7,
			"minor" : 3,
			"revision" : 5,
			"architecture" : "x64",
			"modernui" : 1
		}
,
		"rect" : [ 564.0, 272.0, 814.0, 480.0 ],
		"bglocked" : 0,
		"openinpresentation" : 0,
		"default_fontsize" : 12.0,
		"default_fontface" : 0,
		"default_fontname" : "Arial",
		"gridonopen" : 1,
		"gridsize" : [ 15.0, 15.0 ],
		"gridsnaponopen" : 1,
		"objectsnaponopen" : 1,
		"statusbarvisible" : 2,
		"toolbarvisible" : 1,
		"lefttoolbarpinned" : 0,
		"toptoolbarpinned" : 0,
		"righttoolbarpinned" : 0,
		"bottomtoolbarpinned" : 0,
		"toolbars_unpinned_last_save" : 0,
		"tallnewobj" : 0,
		"boxanimatetime" : 200,
		"enablehscroll" : 1,
		"enablevscroll" : 1,
		"devicewidth" : 0.0,
		"description" : "",
		"digest" : "",
		"tags" : "",
		"style" : "",
		"subpatcher_template" : "",
		"boxes" : [ 			{
				"box" : 				{
					"id" : "obj-42",
					"maxclass" : "newobj",
					"numinlets" : 1,
					"numoutlets" : 12,
					"outlettype" : [ "", "", "", "", "", "", "", "", "", "", "", "" ],
					"patcher" : 					{
						"fileversion" : 1,
						"appversion" : 						{
							"major" : 7,
							"minor" : 3,
							"revision" : 5,
							"architecture" : "x64",
							"modernui" : 1
						}
,
						"rect" : [ 0.0, 0.0, 640.0, 480.0 ],
						"bglocked" : 0,
						"openinpresentation" : 0,
						"default_fontsize" : 12.0,
						"default_fontface" : 0,
						"default_fontname" : "Arial",
						"gridonopen" : 1,
						"gridsize" : [ 15.0, 15.0 ],
						"gridsnaponopen" : 1,
						"objectsnaponopen" : 1,
						"statusbarvisible" : 2,
						"toolbarvisible" : 1,
						"lefttoolbarpinned" : 0,
						"toptoolbarpinned" : 0,
						"righttoolbarpinned" : 0,
						"bottomtoolbarpinned" : 0,
						"toolbars_unpinned_last_save" : 0,
						"tallnewobj" : 0,
						"boxanimatetime" : 200,
						"enablehscroll" : 1,
						"enablevscroll" : 1,
						"devicewidth" : 0.0,
						"description" : "",
						"digest" : "",
						"tags" : "",
						"style" : "",
						"subpatcher_template" : "",
						"boxes" : [ 							{
								"box" : 								{
									"id" : "obj-28",
									"maxclass" : "newobj",
									"numinlets" : 2,
									"numoutlets" : 1,
									"outlettype" : [ "" ],
									"patching_rect" : [ 50.0, 211.0, 97.0, 22.0 ],
									"style" : "",
									"text" : "pack"
								}

							}
, 							{
								"box" : 								{
									"id" : "obj-27",
									"maxclass" : "newobj",
									"numinlets" : 2,
									"numoutlets" : 1,
									"outlettype" : [ "int" ],
									"patching_rect" : [ 50.0, 177.0, 68.0, 22.0 ],
									"style" : "",
									"text" : "random 12"
								}

							}
, 							{
								"box" : 								{
									"id" : "obj-26",
									"maxclass" : "newobj",
									"numinlets" : 1,
									"numoutlets" : 2,
									"outlettype" : [ "bang", "bang" ],
									"patching_rect" : [ 50.0, 137.0, 97.0, 22.0 ],
									"style" : "",
									"text" : "t b b"
								}

							}
, 							{
								"box" : 								{
									"id" : "obj-25",
									"maxclass" : "newobj",
									"numinlets" : 1,
									"numoutlets" : 12,
									"outlettype" : [ "", "", "", "", "", "", "", "", "", "", "", "" ],
									"patching_rect" : [ 54.0, 244.0, 134.5, 22.0 ],
									"style" : "",
									"text" : "spray 12"
								}

							}
, 							{
								"box" : 								{
									"id" : "obj-21",
									"maxclass" : "newobj",
									"numinlets" : 2,
									"numoutlets" : 1,
									"outlettype" : [ "bang" ],
									"patching_rect" : [ 50.0, 100.0, 65.0, 22.0 ],
									"style" : "",
									"text" : "metro 250"
								}

							}
, 							{
								"box" : 								{
									"id" : "obj-20",
									"maxclass" : "newobj",
									"numinlets" : 2,
									"numoutlets" : 1,
									"outlettype" : [ "int" ],
									"patching_rect" : [ 128.0, 177.0, 46.0, 22.0 ],
									"style" : "",
									"text" : "decide"
								}

							}
, 							{
								"box" : 								{
									"comment" : "",
									"id" : "obj-29",
									"index" : 1,
									"maxclass" : "inlet",
									"numinlets" : 0,
									"numoutlets" : 1,
									"outlettype" : [ "int" ],
									"patching_rect" : [ 50.0, 40.0, 30.0, 30.0 ],
									"style" : ""
								}

							}
, 							{
								"box" : 								{
									"comment" : "",
									"id" : "obj-30",
									"index" : 1,
									"maxclass" : "outlet",
									"numinlets" : 1,
									"numoutlets" : 0,
									"patching_rect" : [ 54.0, 326.0, 30.0, 30.0 ],
									"style" : ""
								}

							}
, 							{
								"box" : 								{
									"comment" : "",
									"id" : "obj-31",
									"index" : 2,
									"maxclass" : "outlet",
									"numinlets" : 1,
									"numoutlets" : 0,
									"patching_rect" : [ 89.0, 326.0, 30.0, 30.0 ],
									"style" : ""
								}

							}
, 							{
								"box" : 								{
									"comment" : "",
									"id" : "obj-32",
									"index" : 3,
									"maxclass" : "outlet",
									"numinlets" : 1,
									"numoutlets" : 0,
									"patching_rect" : [ 124.0, 326.0, 30.0, 30.0 ],
									"style" : ""
								}

							}
, 							{
								"box" : 								{
									"comment" : "",
									"id" : "obj-33",
									"index" : 4,
									"maxclass" : "outlet",
									"numinlets" : 1,
									"numoutlets" : 0,
									"patching_rect" : [ 159.0, 326.0, 30.0, 30.0 ],
									"style" : ""
								}

							}
, 							{
								"box" : 								{
									"comment" : "",
									"id" : "obj-34",
									"index" : 5,
									"maxclass" : "outlet",
									"numinlets" : 1,
									"numoutlets" : 0,
									"patching_rect" : [ 194.0, 326.0, 30.0, 30.0 ],
									"style" : ""
								}

							}
, 							{
								"box" : 								{
									"comment" : "",
									"id" : "obj-35",
									"index" : 6,
									"maxclass" : "outlet",
									"numinlets" : 1,
									"numoutlets" : 0,
									"patching_rect" : [ 229.0, 326.0, 30.0, 30.0 ],
									"style" : ""
								}

							}
, 							{
								"box" : 								{
									"comment" : "",
									"id" : "obj-36",
									"index" : 7,
									"maxclass" : "outlet",
									"numinlets" : 1,
									"numoutlets" : 0,
									"patching_rect" : [ 264.0, 326.0, 30.0, 30.0 ],
									"style" : ""
								}

							}
, 							{
								"box" : 								{
									"comment" : "",
									"id" : "obj-37",
									"index" : 8,
									"maxclass" : "outlet",
									"numinlets" : 1,
									"numoutlets" : 0,
									"patching_rect" : [ 299.0, 326.0, 30.0, 30.0 ],
									"style" : ""
								}

							}
, 							{
								"box" : 								{
									"comment" : "",
									"id" : "obj-38",
									"index" : 9,
									"maxclass" : "outlet",
									"numinlets" : 1,
									"numoutlets" : 0,
									"patching_rect" : [ 334.0, 326.0, 30.0, 30.0 ],
									"style" : ""
								}

							}
, 							{
								"box" : 								{
									"comment" : "",
									"id" : "obj-39",
									"index" : 10,
									"maxclass" : "outlet",
									"numinlets" : 1,
									"numoutlets" : 0,
									"patching_rect" : [ 369.0, 326.0, 30.0, 30.0 ],
									"style" : ""
								}

							}
, 							{
								"box" : 								{
									"comment" : "",
									"id" : "obj-40",
									"index" : 11,
									"maxclass" : "outlet",
									"numinlets" : 1,
									"numoutlets" : 0,
									"patching_rect" : [ 404.0, 326.0, 30.0, 30.0 ],
									"style" : ""
								}

							}
, 							{
								"box" : 								{
									"comment" : "",
									"id" : "obj-41",
									"index" : 12,
									"maxclass" : "outlet",
									"numinlets" : 1,
									"numoutlets" : 0,
									"patching_rect" : [ 439.0, 326.0, 30.0, 30.0 ],
									"style" : ""
								}

							}
 ],
						"lines" : [ 							{
								"patchline" : 								{
									"destination" : [ "obj-28", 1 ],
									"source" : [ "obj-20", 0 ]
								}

							}
, 							{
								"patchline" : 								{
									"destination" : [ "obj-26", 0 ],
									"source" : [ "obj-21", 0 ]
								}

							}
, 							{
								"patchline" : 								{
									"destination" : [ "obj-30", 0 ],
									"source" : [ "obj-25", 0 ]
								}

							}
, 							{
								"patchline" : 								{
									"destination" : [ "obj-31", 0 ],
									"source" : [ "obj-25", 1 ]
								}

							}
, 							{
								"patchline" : 								{
									"destination" : [ "obj-32", 0 ],
									"source" : [ "obj-25", 2 ]
								}

							}
, 							{
								"patchline" : 								{
									"destination" : [ "obj-33", 0 ],
									"source" : [ "obj-25", 3 ]
								}

							}
, 							{
								"patchline" : 								{
									"destination" : [ "obj-34", 0 ],
									"source" : [ "obj-25", 4 ]
								}

							}
, 							{
								"patchline" : 								{
									"destination" : [ "obj-35", 0 ],
									"source" : [ "obj-25", 5 ]
								}

							}
, 							{
								"patchline" : 								{
									"destination" : [ "obj-36", 0 ],
									"source" : [ "obj-25", 6 ]
								}

							}
, 							{
								"patchline" : 								{
									"destination" : [ "obj-37", 0 ],
									"source" : [ "obj-25", 7 ]
								}

							}
, 							{
								"patchline" : 								{
									"destination" : [ "obj-38", 0 ],
									"source" : [ "obj-25", 8 ]
								}

							}
, 							{
								"patchline" : 								{
									"destination" : [ "obj-39", 0 ],
									"source" : [ "obj-25", 9 ]
								}

							}
, 							{
								"patchline" : 								{
									"destination" : [ "obj-40", 0 ],
									"source" : [ "obj-25", 10 ]
								}

							}
, 							{
								"patchline" : 								{
									"destination" : [ "obj-41", 0 ],
									"source" : [ "obj-25", 11 ]
								}

							}
, 							{
								"patchline" : 								{
									"destination" : [ "obj-20", 0 ],
									"source" : [ "obj-26", 1 ]
								}

							}
, 							{
								"patchline" : 								{
									"destination" : [ "obj-27", 0 ],
									"source" : [ "obj-26", 0 ]
								}

							}
, 							{
								"patchline" : 								{
									"destination" : [ "obj-28", 0 ],
									"source" : [ "obj-27", 0 ]
								}

							}
, 							{
								"patchline" : 								{
									"destination" : [ "obj-25", 0 ],
									"source" : [ "obj-28", 0 ]
								}

							}
, 							{
								"patchline" : 								{
									"destination" : [ "obj-21", 0 ],
									"source" : [ "obj-29", 0 ]
								}

							}
 ]
					}
,
					"patching_rect" : [ 469.0, 69.0, 134.5, 22.0 ],
					"saved_object_attributes" : 					{
						"description" : "",
						"digest" : "",
						"globalpatchername" : "",
						"style" : "",
						"tags" : ""
					}
,
					"style" : "",
					"text" : "p toggleToggles"
				}

			}
, 			{
				"box" : 				{
					"bgcolor" : [ 0.094118, 0.101961, 0.101961, 0.78 ],
					"checkedcolor" : [ 0.784314, 0.145098, 0.023529, 1.0 ],
					"id" : "obj-24",
					"jspainterfile" : "atp.toggle.checkmark.outline_jspainter.js",
					"maxclass" : "toggle",
					"numinlets" : 1,
					"numoutlets" : 1,
					"outlettype" : [ "int" ],
					"parameter_enable" : 0,
					"patching_rect" : [ 469.0, 37.0, 24.0, 24.0 ],
					"presentation_rect" : [ 519.0, 36.0, 0.0, 0.0 ],
					"style" : "",
					"thickness" : 66.0,
					"uncheckedcolor" : [ 0.376471, 0.384314, 0.4, 0.24 ]
				}

			}
, 			{
				"box" : 				{
					"id" : "obj-22",
					"maxclass" : "newobj",
					"numinlets" : 1,
					"numoutlets" : 1,
					"outlettype" : [ "" ],
					"patching_rect" : [ 469.0, 9.0, 72.0, 22.0 ],
					"style" : "",
					"text" : "loadmess 1"
				}

			}
, 			{
				"box" : 				{
					"bgcolor" : [ 0.094118, 0.101961, 0.101961, 0.78 ],
					"checkedcolor" : [ 0.0, 0.533333, 0.168627, 1.0 ],
					"id" : "obj-13",
					"jspainterfile" : "atp.toggle.checkmark.outline_jspainter.js",
					"maxclass" : "toggle",
					"numinlets" : 1,
					"numoutlets" : 1,
					"outlettype" : [ "int" ],
					"parameter_enable" : 0,
					"patching_rect" : [ 371.0, 252.0, 24.0, 24.0 ],
					"presentation_rect" : [ 371.0, 252.0, 0.0, 0.0 ],
					"style" : "",
					"thickness" : 33.0,
					"uncheckedcolor" : [ 0.376471, 0.384314, 0.4, 0.24 ]
				}

			}
, 			{
				"box" : 				{
					"bgcolor" : [ 0.094118, 0.101961, 0.101961, 0.78 ],
					"checkedcolor" : [ 0.0, 0.533333, 0.168627, 1.0 ],
					"id" : "obj-14",
					"jspainterfile" : "atp.toggle.checkmark.outline_jspainter.js",
					"maxclass" : "toggle",
					"numinlets" : 1,
					"numoutlets" : 1,
					"outlettype" : [ "int" ],
					"parameter_enable" : 0,
					"patching_rect" : [ 519.0, 252.0, 24.0, 24.0 ],
					"presentation_rect" : [ 519.0, 252.0, 0.0, 0.0 ],
					"style" : "",
					"thickness" : 100.0,
					"uncheckedcolor" : [ 0.376471, 0.384314, 0.4, 0.24 ]
				}

			}
, 			{
				"box" : 				{
					"bgcolor" : [ 0.094118, 0.101961, 0.101961, 0.78 ],
					"checkedcolor" : [ 0.0, 0.533333, 0.168627, 1.0 ],
					"id" : "obj-15",
					"jspainterfile" : "atp.toggle.checkmark.outline_jspainter.js",
					"maxclass" : "toggle",
					"numinlets" : 1,
					"numoutlets" : 1,
					"outlettype" : [ "int" ],
					"parameter_enable" : 0,
					"patching_rect" : [ 445.0, 252.0, 24.0, 24.0 ],
					"presentation_rect" : [ 445.0, 252.0, 0.0, 0.0 ],
					"style" : "",
					"thickness" : 66.0,
					"uncheckedcolor" : [ 0.376471, 0.384314, 0.4, 0.24 ]
				}

			}
, 			{
				"box" : 				{
					"bgcolor" : [ 0.094118, 0.101961, 0.101961, 0.78 ],
					"checkedcolor" : [ 0.0, 0.533333, 0.168627, 1.0 ],
					"id" : "obj-16",
					"jspainterfile" : "atp.toggle.checkmark.outline_jspainter.js",
					"maxclass" : "toggle",
					"numinlets" : 1,
					"numoutlets" : 1,
					"outlettype" : [ "int" ],
					"parameter_enable" : 0,
					"patching_rect" : [ 349.5, 167.0, 67.0, 67.0 ],
					"presentation_rect" : [ 349.5, 167.0, 0.0, 0.0 ],
					"style" : "",
					"thickness" : 33.0,
					"uncheckedcolor" : [ 0.376471, 0.384314, 0.4, 0.24 ]
				}

			}
, 			{
				"box" : 				{
					"bgcolor" : [ 0.094118, 0.101961, 0.101961, 0.78 ],
					"checkedcolor" : [ 0.0, 0.533333, 0.168627, 1.0 ],
					"id" : "obj-17",
					"jspainterfile" : "atp.toggle.checkmark.outline_jspainter.js",
					"maxclass" : "toggle",
					"numinlets" : 1,
					"numoutlets" : 1,
					"outlettype" : [ "int" ],
					"parameter_enable" : 0,
					"patching_rect" : [ 497.5, 167.0, 67.0, 67.0 ],
					"presentation_rect" : [ 497.5, 167.0, 0.0, 0.0 ],
					"style" : "",
					"thickness" : 100.0,
					"uncheckedcolor" : [ 0.376471, 0.384314, 0.4, 0.24 ]
				}

			}
, 			{
				"box" : 				{
					"bgcolor" : [ 0.094118, 0.101961, 0.101961, 0.78 ],
					"checkedcolor" : [ 0.0, 0.533333, 0.168627, 1.0 ],
					"id" : "obj-18",
					"jspainterfile" : "atp.toggle.checkmark.outline_jspainter.js",
					"maxclass" : "toggle",
					"numinlets" : 1,
					"numoutlets" : 1,
					"outlettype" : [ "int" ],
					"parameter_enable" : 0,
					"patching_rect" : [ 423.5, 167.0, 67.0, 67.0 ],
					"presentation_rect" : [ 423.5, 167.0, 0.0, 0.0 ],
					"style" : "",
					"thickness" : 66.0,
					"uncheckedcolor" : [ 0.376471, 0.384314, 0.4, 0.24 ]
				}

			}
, 			{
				"box" : 				{
					"id" : "obj-19",
					"maxclass" : "comment",
					"numinlets" : 1,
					"numoutlets" : 0,
					"patching_rect" : [ 337.0, 135.0, 259.0, 20.0 ],
					"presentation_rect" : [ 337.0, 135.0, 0.0, 0.0 ],
					"style" : "",
					"text" : "using atp.toggle.checkmark.outline_jspainter.js"
				}

			}
, 			{
				"box" : 				{
					"bgcolor" : [ 0.094118, 0.101961, 0.101961, 0.18 ],
					"checkedcolor" : [ 0.086275, 0.309804, 0.52549, 1.0 ],
					"id" : "obj-10",
					"jspainterfile" : "atp.toggle.checkmark.filled_jspainter.js",
					"maxclass" : "toggle",
					"numinlets" : 1,
					"numoutlets" : 1,
					"outlettype" : [ "int" ],
					"parameter_enable" : 0,
					"patching_rect" : [ 49.0, 252.0, 24.0, 24.0 ],
					"presentation_rect" : [ 12.5, 159.0, 0.0, 0.0 ],
					"style" : "",
					"thickness" : 33.0,
					"uncheckedcolor" : [ 0.376471, 0.384314, 0.4, 0.24 ]
				}

			}
, 			{
				"box" : 				{
					"bgcolor" : [ 0.094118, 0.101961, 0.101961, 0.18 ],
					"checkedcolor" : [ 0.086275, 0.309804, 0.52549, 1.0 ],
					"id" : "obj-11",
					"jspainterfile" : "atp.toggle.checkmark.filled_jspainter.js",
					"maxclass" : "toggle",
					"numinlets" : 1,
					"numoutlets" : 1,
					"outlettype" : [ "int" ],
					"parameter_enable" : 0,
					"patching_rect" : [ 197.0, 252.0, 24.0, 24.0 ],
					"presentation_rect" : [ 160.5, 159.0, 0.0, 0.0 ],
					"style" : "",
					"thickness" : 100.0,
					"uncheckedcolor" : [ 0.376471, 0.384314, 0.4, 0.24 ]
				}

			}
, 			{
				"box" : 				{
					"bgcolor" : [ 0.094118, 0.101961, 0.101961, 0.18 ],
					"checkedcolor" : [ 0.086275, 0.309804, 0.52549, 1.0 ],
					"id" : "obj-12",
					"jspainterfile" : "atp.toggle.checkmark.filled_jspainter.js",
					"maxclass" : "toggle",
					"numinlets" : 1,
					"numoutlets" : 1,
					"outlettype" : [ "int" ],
					"parameter_enable" : 0,
					"patching_rect" : [ 123.0, 252.0, 24.0, 24.0 ],
					"presentation_rect" : [ 86.5, 159.0, 0.0, 0.0 ],
					"style" : "",
					"thickness" : 66.0,
					"uncheckedcolor" : [ 0.376471, 0.384314, 0.4, 0.24 ]
				}

			}
, 			{
				"box" : 				{
					"id" : "obj-9",
					"maxclass" : "comment",
					"numinlets" : 1,
					"numoutlets" : 0,
					"patching_rect" : [ 187.5, 313.0, 218.0, 20.0 ],
					"style" : "",
					"text" : "different thicknesses (set in insepector)"
				}

			}
, 			{
				"box" : 				{
					"bgcolor" : [ 0.094118, 0.101961, 0.101961, 0.18 ],
					"checkedcolor" : [ 0.086275, 0.309804, 0.52549, 1.0 ],
					"id" : "obj-7",
					"jspainterfile" : "atp.toggle.checkmark.filled_jspainter.js",
					"maxclass" : "toggle",
					"numinlets" : 1,
					"numoutlets" : 1,
					"outlettype" : [ "int" ],
					"parameter_enable" : 0,
					"patching_rect" : [ 27.5, 167.0, 67.0, 67.0 ],
					"presentation_rect" : [ 376.5, 159.0, 0.0, 0.0 ],
					"style" : "",
					"thickness" : 33.0,
					"uncheckedcolor" : [ 0.376471, 0.384314, 0.4, 0.24 ]
				}

			}
, 			{
				"box" : 				{
					"bgcolor" : [ 0.094118, 0.101961, 0.101961, 0.18 ],
					"checkedcolor" : [ 0.086275, 0.309804, 0.52549, 1.0 ],
					"id" : "obj-6",
					"jspainterfile" : "atp.toggle.checkmark.filled_jspainter.js",
					"maxclass" : "toggle",
					"numinlets" : 1,
					"numoutlets" : 1,
					"outlettype" : [ "int" ],
					"parameter_enable" : 0,
					"patching_rect" : [ 175.5, 167.0, 67.0, 67.0 ],
					"presentation_rect" : [ 496.5, 161.0, 0.0, 0.0 ],
					"style" : "",
					"thickness" : 100.0,
					"uncheckedcolor" : [ 0.376471, 0.384314, 0.4, 0.24 ]
				}

			}
, 			{
				"box" : 				{
					"bgcolor" : [ 0.094118, 0.101961, 0.101961, 0.18 ],
					"checkedcolor" : [ 0.086275, 0.309804, 0.52549, 1.0 ],
					"id" : "obj-5",
					"jspainterfile" : "atp.toggle.checkmark.filled_jspainter.js",
					"maxclass" : "toggle",
					"numinlets" : 1,
					"numoutlets" : 1,
					"outlettype" : [ "int" ],
					"parameter_enable" : 0,
					"patching_rect" : [ 101.5, 167.0, 67.0, 67.0 ],
					"presentation_rect" : [ 341.5, 159.0, 0.0, 0.0 ],
					"style" : "",
					"thickness" : 66.0,
					"uncheckedcolor" : [ 0.376471, 0.384314, 0.4, 0.24 ]
				}

			}
, 			{
				"box" : 				{
					"id" : "obj-3",
					"linecount" : 4,
					"maxclass" : "comment",
					"numinlets" : 1,
					"numoutlets" : 0,
					"patching_rect" : [ 15.0, 8.0, 412.0, 60.0 ],
					"style" : "",
					"text" : "JS Painter for Max toggle object\nDraws a checkmark instead of the x (which I find is confusing when used in\nstandalones for those not familiar with the Max UI).\nUse by selecting as \"JS Painter File\" in object inspector in Max"
				}

			}
, 			{
				"box" : 				{
					"id" : "obj-4",
					"maxclass" : "comment",
					"numinlets" : 1,
					"numoutlets" : 0,
					"patching_rect" : [ 15.0, 135.0, 248.0, 20.0 ],
					"style" : "",
					"text" : "using atp.toggle.checkmark.filled_jspainter.js"
				}

			}
 ],
		"lines" : [ 			{
				"patchline" : 				{
					"destination" : [ "obj-24", 0 ],
					"source" : [ "obj-22", 0 ]
				}

			}
, 			{
				"patchline" : 				{
					"destination" : [ "obj-42", 0 ],
					"source" : [ "obj-24", 0 ]
				}

			}
, 			{
				"patchline" : 				{
					"destination" : [ "obj-10", 0 ],
					"hidden" : 1,
					"source" : [ "obj-42", 3 ]
				}

			}
, 			{
				"patchline" : 				{
					"destination" : [ "obj-11", 0 ],
					"hidden" : 1,
					"source" : [ "obj-42", 5 ]
				}

			}
, 			{
				"patchline" : 				{
					"destination" : [ "obj-12", 0 ],
					"hidden" : 1,
					"source" : [ "obj-42", 4 ]
				}

			}
, 			{
				"patchline" : 				{
					"destination" : [ "obj-13", 0 ],
					"hidden" : 1,
					"source" : [ "obj-42", 9 ]
				}

			}
, 			{
				"patchline" : 				{
					"destination" : [ "obj-14", 0 ],
					"hidden" : 1,
					"source" : [ "obj-42", 11 ]
				}

			}
, 			{
				"patchline" : 				{
					"destination" : [ "obj-15", 0 ],
					"hidden" : 1,
					"source" : [ "obj-42", 10 ]
				}

			}
, 			{
				"patchline" : 				{
					"destination" : [ "obj-16", 0 ],
					"hidden" : 1,
					"source" : [ "obj-42", 6 ]
				}

			}
, 			{
				"patchline" : 				{
					"destination" : [ "obj-17", 0 ],
					"hidden" : 1,
					"source" : [ "obj-42", 8 ]
				}

			}
, 			{
				"patchline" : 				{
					"destination" : [ "obj-18", 0 ],
					"hidden" : 1,
					"source" : [ "obj-42", 7 ]
				}

			}
, 			{
				"patchline" : 				{
					"destination" : [ "obj-5", 0 ],
					"hidden" : 1,
					"source" : [ "obj-42", 1 ]
				}

			}
, 			{
				"patchline" : 				{
					"destination" : [ "obj-6", 0 ],
					"hidden" : 1,
					"source" : [ "obj-42", 2 ]
				}

			}
, 			{
				"patchline" : 				{
					"destination" : [ "obj-7", 0 ],
					"hidden" : 1,
					"source" : [ "obj-42", 0 ]
				}

			}
 ],
		"dependency_cache" : [  ],
		"autosave" : 0
	}

}
